/* Created with The GIMP */
#define C__Program_Files_Tcl_lib_width 12
#define C__Program_Files_Tcl_lib_height 12
static unsigned char C__Program_Files_Tcl_lib_bits[] = {
   0x00, 0x00, 0x00, 0x00, 0x80, 0x00, 0xc0, 0x00, 0xe0, 0x00, 0xf0, 0x00,
   0xe0, 0x00, 0xc0, 0x00, 0x80, 0x00, 0x00, 0x00, 0x00, 0x00, 0x00, 0x00 };
