/* Created with The GIMP */
#define C__Program_Files_Tcl_lib_width 17
#define C__Program_Files_Tcl_lib_height 18
static unsigned char C__Program_Files_Tcl_lib_bits[] = {
   0x00, 0x00, 0x00, 0x00, 0x00, 0x00, 0x70, 0x1c, 0x00, 0x50, 0x1c, 0x00,
   0x50, 0x1c, 0x00, 0x70, 0x1c, 0x00, 0xf8, 0x3e, 0x00, 0xe8, 0x3a, 0x00,
   0xfc, 0x7f, 0x00, 0x7e, 0xfb, 0x00, 0x7e, 0xfb, 0x00, 0xfe, 0xfb, 0x00,
   0xfe, 0xfe, 0x00, 0x3a, 0xe8, 0x00, 0x3a, 0xe8, 0x00, 0x3e, 0xf8, 0x00,
   0x3e, 0xf8, 0x00, 0x00, 0x00, 0x00 };
