/* Created with The GIMP */
#define c__program_files_tcl_lib_width 17
#define c__program_files_tcl_lib_height 17
static unsigned char c__program_files_tcl_lib_bits[] = {
   0x00, 0x00, 0x00, 0x00, 0x00, 0x00, 0x00, 0x00, 0x00, 0xf4, 0x3f, 0x00,
   0x00, 0x00, 0x00, 0xf4, 0x3f, 0x00, 0x00, 0x00, 0x00, 0xf0, 0x3f, 0x00,
   0x00, 0x00, 0x00, 0xf0, 0x3f, 0x00, 0x00, 0x00, 0x00, 0xf4, 0x3f, 0x00,
   0x00, 0x00, 0x00, 0x00, 0x00, 0x00, 0x00, 0x00, 0x00, 0x00, 0x00, 0x00,
   0x00, 0x00, 0x00 };
